<?xml version="1.0" encoding="UTF-8"?>
<svg version="1.1" viewBox="0 0 1600 408" width="1280" height="1280" xmlns="http://www.w3.org/2000/svg">
<path transform="translate(1224 42.8)" d="m0 0c1.11-0.00527 2.22-0.0105 3.37-0.016 3.16-0.0116 6.32-0.00845 9.49 3.36e-4 0.949-0.00395 1.9-0.00791 2.88-0.012 0.876 0.00621 1.75 0.0124 2.66 0.0188 0.762 0.00159 1.52 0.00318 2.31 0.00482 2.4 0.288 4.03 1.06 6.12 2.25-0.33 0.33-0.66 0.66-1 1-0.0958 1.54-0.122 3.09-0.12 4.64-0.00137 1-0.00275 2.01-0.00417 3.04 0.0036 1.11 0.00719 2.22 0.0109 3.36-2.19e-4 1.74-2.19e-4 1.74-4.43e-4 3.52 7e-4 3.86 0.00849 7.72 0.0163 11.6 0.00186 2.67 0.00334 5.33 0.00429 8 0.00311 6.31 0.0113 12.6 0.0213 18.9 0.0123 7.89 0.0177 15.8 0.0232 23.7 0.00975 14.1 0.0298 28.2 0.0488 42.3h-55c-1.38-2.76-1.16-5.02-1.21-8.1-0.0199-1.28-0.0399-2.56-0.0604-3.88-0.017-1.4-0.0339-2.81-0.0506-4.21-0.0206-1.43-0.0416-2.86-0.063-4.3-0.0552-3.77-0.105-7.54-0.153-11.3-0.0502-3.85-0.106-7.69-0.161-11.5-0.108-7.55-0.209-15.1-0.307-22.7-3.46-0.0203-6.93-0.0323-10.4-0.043-0.968-0.00576-1.94-0.0115-2.93-0.0175-21-0.0483-39.9 3.38-58.4 13.4-2.53 1.3-4.49 2.2-7.26 2.67v2c-1.64 1.4-1.64 1.4-3.81 2.94-2.11 1.5-4.02 2.89-5.82 4.75-1.36 1.31-1.36 1.31-3.36 1.31-0.276 0.592-0.552 1.18-0.836 1.79-1.1 2.09-2.29 3.7-3.79 5.52-14.3 19-18.7 40.9-18.7 64.2l-0.0488 4c-0.00411 8.3 1.06 15.5 3.36 23.4 0.35 1.66 0.689 3.33 1 5h2c0.352 0.955 0.704 1.91 1.07 2.89 8.42 22.3 22 36.4 43.4 46.6 21.7 9.22 45.1 9.67 68.3 9.51 18.4-0.116 36.8 0.193 55.2 0.982v50h-1v-47c-1.22 1-1.22 1-1.12 3.02 0.00222 0.886 0.00444 1.77 0.00673 2.68 7.55e-5 1 1.51e-4 2 2.29e-4 3.03 0.00516 1.09 0.0103 2.18 0.0156 3.3 0.00141 1.11 0.00283 2.22 0.00429 3.36 0.00562 3.56 0.0182 7.11 0.0309 10.7 0.00501 2.4 0.00958 4.81 0.0137 7.21 0.0111 5.91 0.0278 11.8 0.0488 17.7-9.55 0.0468-19.1 0.0821-28.6 0.104-4.44 0.0103-8.87 0.0243-13.3 0.0473-38.6 0.194-38.6 0.194-55.1-2.15-1.8-0.25-1.8-0.25-3.63-0.504-3.08-0.475-6.13-1.02-9.18-1.62-1.62-0.317-1.62-0.317-3.26-0.639-33.3-6.9-64.2-21.7-86.7-47.7-0.502-0.579-1-1.16-1.52-1.75-2.6-3.11-4.49-5.94-5.73-9.81h-2c-0.672-1.29-1.34-2.58-2-3.88-0.371-0.719-0.743-1.44-1.12-2.18-0.875-1.95-0.875-1.95-0.875-3.95h-2c-0.124-1.13-0.247-2.27-0.375-3.44-0.206-1.18-0.412-2.35-0.625-3.56l-2-1c-1.07-2.33-2.06-4.62-3-7-0.329-0.776-0.657-1.55-0.996-2.35-1.1-2.89-1.85-5.76-2.57-8.77-0.725-3.01-1.46-5.93-2.44-8.88-4.25-25-7.14-56.2 0-81l0.586-2.34c0.744-2.91 1.57-5.78 2.41-8.66 0.27-0.945 0.27-0.945 0.545-1.91 3.84-13.3 9.75-25.1 16.5-37.1h2c0.356-1.06 0.356-1.06 0.719-2.14 1.51-3.37 3.44-5.83 5.78-8.68 0.794-0.976 1.59-1.95 2.41-2.96 0.691-0.736 1.38-1.47 2.09-2.23h2v-2c11.7-11.1 25.4-19.3 40-26 1.15-0.535 2.29-1.07 3.47-1.62 11.7-5.08 24.1-7.77 36.5-10.4 0.809-0.172 1.62-0.343 2.45-0.52 27.2-5.51 56.2-4.66 83.7-4.73zm-141 191 1 2zm2 5 1 2zm1 2 1 3z" fill="#FAFBFD"/>
<path transform="translate(849 42.9)" d="m0 0c1.07-0.00175 2.13-0.0035 3.23-0.00531 3.52-0.00439 7.04-0.00149 10.6 0.00189 2.47-6.75e-4 4.94-0.00165 7.41-0.0029 5.18-0.00147 10.4 6.66e-4 15.5 0.00534 6.58 0.00565 13.2 0.00245 19.7-0.00357 5.11-0.00365 10.2-0.00244 15.3 1.28e-4 2.42 6.59e-4 4.84-1.21e-4 7.26-0.00248 3.42-0.0026 6.85 0.00142 10.3 0.0069 0.963-0.00202 1.93-0.00405 2.92-0.00613 11 0.0319 21.9 0.656 33 1.14v53h-1v-52c-1.23 1.01-1.23 1.01-1.12 3.06 0.00222 0.904 0.00444 1.81 0.00673 2.74 7.55e-5 1.02 1.51e-4 2.04 2.29e-4 3.09 0.00516 1.11 0.0103 2.22 0.0156 3.36 0.00141 1.13 0.00283 2.26 0.00429 3.43 0.00562 3.63 0.0182 7.26 0.0309 10.9 0.00501 2.45 0.00958 4.9 0.0137 7.36 0.0111 6.03 0.0278 12.1 0.0488 18.1-0.713 0.0103-1.43 0.0206-2.16 0.0312-6.84 0.0994-13.7 0.202-20.5 0.308-3.51 0.0544-7.02 0.108-10.5 0.158-3.41 0.049-6.82 0.101-10.2 0.156-1.89 0.0293-3.77 0.0554-5.66 0.0813-11.7 0.191-23.2 0.759-34.9 1.27v67c8.21-0.0116 16.4-0.0232 24.9-0.0352 5.87-0.00576 11.7-0.0109 17.6-0.0151 7.6-0.00554 15.2-0.0126 22.8-0.0252 6.66-0.0111 13.3-0.0168 20-0.0194 2.54-0.00185 5.08-0.00545 7.62-0.0109 3.56-0.00727 7.12-0.00826 10.7-0.0078 1.57-0.00539 1.57-0.00539 3.17-0.0109 5.53 0.00776 10.8 0.304 16.3 1.12-0.33 0.99-0.66 1.98-1 3-0.0874 1.64-0.118 3.29-0.114 4.93 7.55e-5 1 1.51e-4 2 2.29e-4 3.03 0.00516 1.08 0.0103 2.16 0.0156 3.27 0.00141 1.11 0.00283 2.21 0.00429 3.35 0.0056 3.54 0.0182 7.07 0.0309 10.6 0.00501 2.4 0.00958 4.79 0.0137 7.19 0.011 5.88 0.0278 11.8 0.0488 17.6-6.49 0.973-12.8 1.14-19.4 1.11-1.67 2.19e-4 -1.67 2.19e-4 -3.37 4.43e-4 -3.66-6.93e-4 -7.32-0.00846-11-0.0163-2.54-0.00187-5.09-0.00329-7.63-0.00429-6-0.00342-12-0.0113-18-0.0213-7.51-0.0123-15-0.0178-22.5-0.0232-13.4-0.00972-26.8-0.0298-40.1-0.0488v68h86v55h-1v-52c-1.23 1.01-1.23 1.01-1.12 3.06 0.00222 0.904 0.00444 1.81 0.00673 2.74 7.55e-5 1.02 1.51e-4 2.04 2.29e-4 3.09 0.00516 1.11 0.0103 2.22 0.0156 3.36 0.00141 1.13 0.00283 2.26 0.00429 3.43 0.00562 3.63 0.0182 7.26 0.0309 10.9 0.00501 2.45 0.00958 4.9 0.0137 7.36 0.0111 6.03 0.0278 12.1 0.0488 18.1-29.6 1-59.2 1.11-88.8 1.12-3.06 0.00162-6.12 0.00518-9.18 0.00919-4.89 0.00588-9.78 0.00606-14.7 0.00175-1.83-9.95e-4 -3.66-4.12e-4 -5.49 0.00184-2.53 0.00256-5.07-0.00127-7.6-0.00676-1.1 0.00304-1.1 0.00304-2.23 0.00614-4.45-0.0181-8.64-0.414-13-1.14-0.924-2.77-1.18-4.7-1.31-7.58-0.0412-0.931-0.0824-1.86-0.125-2.82-0.058-1.52-0.058-1.52-0.117-3.07-0.0421-1.07-0.0842-2.13-0.128-3.23-0.456-12.6-0.467-25.2-0.464-37.8-3e-3 -2.66-0.00638-5.32-0.0102-7.98-0.0082-6.4-0.011-12.8-0.0116-19.2-4.79e-4 -5.2-0.00255-10.4-0.0057-15.6-0.00877-14.8-0.0134-29.6-0.0127-44.4 4e-5 -0.792 7.99e-5 -1.58 1.21e-4 -2.4 4.09e-5 -0.793 8.18e-5 -1.59 1.24e-4 -2.4 4.08e-4 -12.9-0.00922-25.8-0.0233-38.7-0.0143-13.3-0.0213-26.6-0.0204-39.9 3.32e-4 -7.45-0.00242-14.9-0.0132-22.4-0.01-6.99-0.00979-14-0.00248-21 0.00105-2.57-0.00134-5.14-0.00736-7.7-0.00766-3.49-0.00312-6.98 0.00463-10.5-0.00514-1.03-0.0103-2.05-0.0156-3.11 0.0046-0.932 0.0092-1.86 0.0139-2.82-2.17e-4 -0.806-4.35e-4 -1.61-6.59e-4 -2.44 0.25-2.08 0.25-2.08 2.25-5.08 5.85-1.35 11.8-1.14 17.8-1.13zm37.2 57.1v65h1v-65h-1zm0 124v64h1v-64h-1z" fill="#F8F9FB"/>
<path transform="translate(1466 42.9)" d="m0 0c1.22 0.00193 2.44 0.00387 3.69 0.00586 8.51 0.0409 17 0.312 25.4 1.12-0.33 0.66-0.66 1.32-1 2-0.0929 1.61-0.122 3.22-0.12 4.83-0.00137 1.03-0.00275 2.05-0.00416 3.11 0.00359 1.14 0.00719 2.27 0.0109 3.44-2.23e-4 1.8-2.23e-4 1.8-4.51e-4 3.63 5.76e-4 3.34 0.00565 6.68 0.0126 10 0.00636 3.6 0.00694 7.2 0.00818 10.8 0.00289 6.24 0.00934 12.5 0.0181 18.7 0.0125 9.02 0.0186 18 0.0229 27.1 0.00707 14.6 0.0179 29.3 0.0317 43.9 8.28e-4 0.877 0.00166 1.75 0.00251 2.66 0.00674 7.12 0.0137 14.2 0.0206 21.3 0.00605 6.22 0.012 12.4 0.0179 18.7 8.28e-4 0.875 0.00166 1.75 0.00251 2.65 0.0137 14.6 0.0234 29.2 0.0304 43.8 0.00449 9 0.0125 18 0.0251 27 0.00841 6.17 0.0133 12.3 0.0154 18.5 0.00135 3.56 0.00437 7.12 0.0118 10.7 0.00797 3.86 0.00826 7.71 0.00778 11.6 0.00359 1.13 0.00719 2.26 0.0109 3.43-0.00137 1.03-0.00275 2.06-0.00416 3.12 0.00138 1.34 0.00138 1.34 0.00279 2.7-0.117 2.26-0.488 4.21-1.12 6.38-4.28 0.146-8.57 0.288-12.8 0.427-1.45 0.0476-2.9 0.0961-4.35 0.146-27.4 0.934-27.4 0.934-36.8-0.573-1.14-3.42-1.21-6.2-1.32-9.81-0.0208-0.681-0.0416-1.36-0.063-2.06-0.0433-1.45-0.0843-2.9-0.123-4.36-0.058-2.14-0.124-4.29-0.191-6.43-0.32-11.1-0.307-22.2-0.307-33.3h-114c-0.827 3.31-1.17 5.87-1.3 9.23-0.04 1.04-0.0799 2.08-0.121 3.15-0.0579 1.68-0.0579 1.68-0.117 3.38-0.043 1.15-0.086 2.3-0.13 3.48-0.136 3.67-0.267 7.34-0.397 11-0.0914 2.49-0.183 4.97-0.275 7.46-0.225 6.1-0.445 12.2-0.662 18.3-7.65 0.0759-15.3 0.129-23 0.165-2.61 0.0151-5.21 0.0356-7.82 0.0615-3.74 0.0363-7.48 0.0534-11.2 0.0667-1.17 0.0155-2.34 0.031-3.55 0.0469-1.08 2.27e-4 -2.16 4.53e-4 -3.28 6.87e-4 -0.955 0.00666-1.91 0.0133-2.89 0.0202-0.756-0.119-1.51-0.238-2.29-0.361-2.52-3.79-2.45-7-2.61-11.4-0.0375-0.843-0.0751-1.69-0.114-2.55-0.39-9.51-0.436-19-0.44-28.5-0.00322-1.89-0.00659-3.78-0.0101-5.67-0.00592-3.91-0.00785-7.83-0.00725-11.7 1.03e-4 -5.01-0.0137-10-0.0308-15-0.0111-3.88-0.0131-7.76-0.0126-11.6-0.00118-1.85-0.00558-3.7-0.0133-5.55-0.00979-2.57-0.00693-5.14-8.95e-4 -7.71-0.00562-0.756-0.0112-1.51-0.017-2.29 0.0243-4.07 0.449-7.21 2.26-10.9 33.9-0.104 67.8 0.173 102 0.445 7.69 0.0617 15.4 0.122 23.1 0.181 15.8 0.122 31.5 0.247 47.3 0.373-0.00184-0.957-0.00369-1.91-0.00559-2.9-0.0443-23.3-0.0772-46.5-0.098-69.8-0.0103-11.2-0.0244-22.5-0.0473-33.7-0.0199-9.8-0.0328-19.6-0.0373-29.4-0.00261-5.19-0.00878-10.4-0.0233-15.6-0.0135-4.88-0.0178-9.76-0.0148-14.6-5.52e-4 -1.8-0.00456-3.59-0.0122-5.39-0.00988-2.44-0.00758-4.89-0.0021-7.33-0.00583-0.718-0.0117-1.44-0.0177-2.18 0.0299-4.9 0.0299-4.9 2.26-7.13 8.81-1.42 18-1.16 26.9-1.12z" fill="#FBFCFE"/>
<path transform="translate(120,95)" d="m0 0c2.23-0.381 2.23-0.381 5.06-0.388 1.06-0.00931 2.12-0.0186 3.22-0.0282 1.16 0.00593 2.32 0.0119 3.52 0.018 1.8-0.00628 1.8-0.00628 3.64-0.0127 3.25-0.00524 6.49 0.00438 9.74 0.0244 2.01 0.0117 4.02 0.0188 6.03 0.0248 39.4 0.137 79.5 1.92 114 23.4 1.02 0.599 2.04 1.2 3.09 1.82 5.03 3.02 9.1 5.93 12.7 10.6 1.29 1.67 2.7 3.11 4.22 4.58 3.89 3.77 3.89 3.77 5 6 0.474 0.598 0.949 1.2 1.44 1.81 1.56 2.19 1.56 2.19 2.41 4.34 1.19 2.94 2.57 5.7 4.02 8.52 5.23 10.2 8.3 19.6 10.4 30.8 0.519 2.63 1.1 5.18 1.82 7.76 2.24 9.6 2.03 19.5 2 29.3 0.00387 1.25 0.00773 2.5 0.0117 3.79-0.00969 9.22-0.376 18.1-2.55 27.1-0.447 1.92-0.841 3.85-1.21 5.79-5.07 26.1-20.8 48-42.6 62.9-19.1 12.2-39.6 18.3-61.8 21.8-1.03 0.17-1.03 0.17-2.08 0.343-20 3.22-40.6 2.75-60.8 2.78-0.925 0.00268-1.85 0.00536-2.8 0.00812-2.65 0.00582-5.29 0.00414-7.94-3.05e-4 -0.802 0.00197-1.6 0.00395-2.43 0.00598-3.24-0.0136-5.85-0.105-8.95-1.14-1.31-3.93-1.15-7.68-1.15-11.8-0.00336-0.898-0.00672-1.8-0.0102-2.72-0.00951-2.97-0.0115-5.95-0.0125-8.92-0.00321-2.07-0.00658-4.13-0.0101-6.2-0.00599-4.34-0.00784-8.67-0.00725-13 1.02e-4 -5.55-0.0135-11.1-0.0308-16.7-0.0111-4.27-0.0131-8.54-0.0126-12.8-0.00118-2.05-0.0056-4.09-0.0133-6.14-0.00981-2.87-0.00692-5.73-8.95e-4 -8.6-0.00562-0.843-0.0112-1.69-0.017-2.56 0.0245-4.6 0.502-8.28 2.26-12.6 6.05-0.0247 12.1-0.0429 18.2-0.0549 2.06-0.00503 4.12-0.0119 6.17-0.0205 2.96-0.0121 5.92-0.0178 8.88-0.0222 0.92-0.00516 1.84-0.0103 2.79-0.0156 0.861-7.55e-5 1.72-1.51e-4 2.61-2.29e-4 0.755-0.00222 1.51-0.00444 2.29-0.00673 2.11 0.12 2.11 0.12 6.11 1.12v56c26.8-1.51 49.7-2.81 72-19 0.657-0.447 1.31-0.895 1.99-1.36 12.7-9.52 18.8-27.8 21.6-42.7 2.24-20.4 0.806-39.6-8.45-58-0.326-0.668-0.652-1.34-0.988-2.03-1.74-3.47-3.59-6.65-5.89-9.78-2.24-3.13-2.24-3.13-2.24-5.13-0.584-0.272-1.17-0.544-1.77-0.824-2.2-1.16-3.98-2.45-5.92-3.99-20.8-15.7-45.1-17.9-70.3-17.2-1.24 2.49-1.16 4.22-1.21 7-0.0199 1.04-0.0399 2.08-0.0604 3.15-0.0167 1.13-0.0334 2.25-0.0506 3.42-0.0208 1.15-0.0416 2.3-0.063 3.49-0.0655 3.69-0.124 7.38-0.183 11.1-0.0432 2.5-0.0868 4.99-0.131 7.49-0.107 6.13-0.209 12.3-0.307 18.4-9 0.821-17.9 1.19-26.9 1.19-2.26 0.00223-4.52 0.0206-6.79 0.0393-1.44 0.00293-2.89 0.00492-4.33 0.00586-1.94 0.00616-1.94 0.00616-3.93 0.0125-3.07-0.243-3.07-0.243-5.07-2.24-0.199-3.06-0.273-6.02-0.259-9.08-0.00526-1.41-0.00526-1.41-0.0106-2.85-0.00883-3.12-0.00296-6.25 0.00378-9.37-0.00135-2.16-0.00329-4.33-0.0058-6.49-0.00295-4.54 0.00135-9.08 0.0107-13.6 0.0114-5.83 0.00484-11.7-0.00714-17.5-0.00722-4.47-0.00493-8.94 2.56e-4 -13.4 0.00134-2.15-3.11e-4 -4.3-0.00496-6.45-0.00507-3 0.00265-6 0.0138-9.01-0.00405-0.893-0.0081-1.79-0.0123-2.71 0.00564-0.817 0.0113-1.63 0.0171-2.48 7.54e-4 -0.71 0.00151-1.42 0.00229-2.15 0.252-1.88 0.252-1.88 2.25-4.88zm44 154c0.33 16.8 0.66 33.7 1 51h1v-51h-2z" fill="#FBFCFD"/>
<path transform="translate(325,95)" d="m0 0c2.1-0.369 2.1-0.369 4.76-0.361 1.51-0.00619 1.51-0.00619 3.04-0.0125 1.11 0.0108 2.21 0.0216 3.35 0.0327 1.16-4.38e-4 2.32-8.76e-4 3.52-0.00133 3.85 0.0021 7.7 0.0255 11.6 0.0489 2.67 0.00559 5.33 0.01 8 0.0129 6.31 0.00933 12.6 0.034 18.9 0.064 7.18 0.0335 14.4 0.05 21.5 0.0651 14.8 0.0314 29.5 0.0842 44.3 0.151-0.33 0.66-0.66 1.32-1 2-0.0892 1.39-0.118 2.78-0.114 4.17 1.81e-4 1.31 1.81e-4 1.31 3.66e-4 2.64 0.00512 0.918 0.0102 1.84 0.0155 2.78 0.00101 0.843 0.00201 1.69 0.00305 2.56 0.00524 3.16 0.0192 6.31 0.0321 9.47 0.0206 7.05 0.0412 14.1 0.0625 21.4-35.6 0.495-35.6 0.495-72 1 0.33 0.66 0.66 1.32 1 2 0.0907 1.76 0.118 3.52 0.114 5.28-7.55e-5 1.1-1.51e-4 2.2-2.29e-4 3.34-0.00516 1.19-0.0103 2.39-0.0156 3.61-0.00141 1.22-0.00283 2.44-0.00429 3.69-0.00561 3.9-0.0182 7.81-0.0309 11.7-0.00501 2.64-0.00958 5.28-0.0137 7.92-0.011 6.48-0.0278 13-0.0488 19.5 1.25-0.00444 2.49-0.00888 3.78-0.0135 11.7-0.0405 23.5-0.0705 35.2-0.0902 6.03-0.0104 12.1-0.0246 18.1-0.0473 5.82-0.0217 11.6-0.0337 17.4-0.0389 2.22-0.0037 4.44-0.0109 6.67-0.0217 3.11-0.0145 6.21-0.0165 9.32-0.0156 1.39-0.0108 1.39-0.0108 2.8-0.0218 0.846 0.00275 1.69 0.0055 2.56 0.00833 0.735-0.00184 1.47-0.00369 2.23-0.00559 1.93 0.246 1.93 0.246 4.93 2.25-0.33 0.33-0.66 0.66-1 1-0.0887 3.1-0.115 6.18-0.0977 9.29 0.00141 0.931 0.00283 1.86 0.00429 2.82 0.00562 2.99 0.0182 5.97 0.0309 8.96 0.00501 2.02 0.00958 4.04 0.0137 6.06 0.0111 4.96 0.0283 9.92 0.0488 14.9-11.3 1.15-22.4 1.13-33.7 1.1-1.98-0.00187-3.95-0.00329-5.93-0.00429-5.16-0.00379-10.3-0.0136-15.5-0.0247-6.21-0.0121-12.4-0.0166-18.6-0.0225-9.4-0.00964-18.8-0.0288-28.2-0.0462v57h72c-0.33 1.32-0.66 2.64-1 4-0.0831 1.43-0.118 2.87-0.114 4.31 7.55e-5 0.841 1.51e-4 1.68 2.29e-4 2.55 0.00516 0.898 0.0103 1.8 0.0156 2.72 0.00141 0.927 0.00283 1.85 0.00429 2.81 0.00559 2.95 0.0181 5.91 0.0309 8.86 0.00502 2.01 0.00958 4.01 0.0137 6.02 0.011 4.91 0.0283 9.82 0.0488 14.7-6.6 0.848-13 1.14-19.7 1.13-1.03 0.00175-2.06 0.0035-3.12 0.00531-3.37 0.00437-6.75 0.0015-10.1-0.00189-2.35 6.74e-4 -4.71 0.00165-7.06 0.0029-4.92 0.00147-9.84-6.58e-4 -14.8-0.00534-6.31-0.00571-12.6-0.0024-18.9 0.00357-4.85 0.00361-9.71 0.00247-14.6-1.28e-4 -2.33-6.67e-4 -4.65 1.53e-4 -6.98 0.00248-3.25 0.00253-6.49-0.00132-9.74-0.0069-0.963 0.00202-1.93 0.00405-2.92 0.00613-0.884-0.00282-1.77-0.00564-2.68-0.00854-0.766-3.77e-4 -1.53-7.54e-4 -2.32-0.00114-2.21-0.131-4.05-0.335-6.12-1.13-0.918-2.75-1.13-4.37-1.13-7.2-0.00322-0.861-0.00645-1.72-0.00977-2.61 0.00155-0.946 0.0031-1.89 0.00469-2.87-0.00227-1.01-0.00453-2.01-0.00687-3.05-0.00635-3.38-0.00551-6.77-0.00469-10.1-0.00299-2.42-0.00639-4.84-0.0102-7.26-0.00793-5.9-0.0111-11.8-0.0116-17.7-4.75e-4 -4.79-0.00253-9.59-0.0057-14.4-0.00881-13.6-0.0134-27.2-0.0127-40.7 4e-5 -0.732 7.99e-5 -1.46 1.21e-4 -2.22 4.09e-5 -0.733 8.18e-5 -1.47 1.24e-4 -2.22 4.07e-4 -11.9-0.00917-23.8-0.0233-35.7-0.0143-12.2-0.0213-24.4-0.0204-36.6 3.32e-4 -6.85-0.00244-13.7-0.0132-20.6-0.01-6.44-0.00978-12.9-0.00248-19.3 0.00105-2.37-0.00134-4.74-0.00736-7.11-0.00766-3.22-0.00311-6.45 0.00463-9.67-0.00514-0.946-0.0103-1.89-0.0156-2.87 0.0046-0.861 0.0092-1.72 0.0139-2.61-2.17e-4 -0.745-4.35e-4 -1.49-6.59e-4 -2.26 0.25-1.95 0.25-1.95 2.25-4.95zm45 48v54h1v-54h-1zm0 106v51h1v-51h-1z" fill="#F7F8FA"/>
<path transform="translate(490 94.9)" d="m0 0c1.38 1.13e-4 1.38 1.13e-4 2.79 2.29e-4 1.49 0.00774 1.49 0.00774 3.02 0.0156 1.53 0.00212 1.53 0.00212 3.09 0.00429 3.26 0.00561 6.52 0.0182 9.78 0.0309 2.21 0.00501 4.41 0.00958 6.62 0.0137 5.42 0.011 10.8 0.0278 16.3 0.0488 0.301 0.911 0.602 1.82 0.912 2.76 0.798 2.37 1.62 4.72 2.5 7.07 0.395 1.06 0.395 1.06 0.797 2.13 0.282 0.755 0.564 1.51 0.855 2.29 2.97 8 5.79 16.1 8.56 24.1 2.58 7.52 5.22 15 8.13 22.4 2.63 6.9 4.99 13.9 7.42 20.9 1.54 4.42 3.12 8.83 4.7 13.2 0.757 2.11 1.51 4.22 2.25 6.33 0.351 0.987 0.701 1.97 1.06 2.99 0.454 1.29 0.454 1.29 0.918 2.61 0.9 2.43 0.9 2.43 2.89 5.21 0.892 2.68 1.61 5.33 2.31 8.06 1.48 5.5 3.45 10.7 5.69 15.9h2v2h2c0.18-0.613 0.359-1.23 0.544-1.86 1.74-5.89 3.62-11.7 5.64-17.5 0.324-0.93 0.648-1.86 0.981-2.82 4.61-13.1 9.41-26.2 14.2-39.3 0.676-1.85 1.35-3.7 2.03-5.55 0.323-0.883 0.646-1.77 0.979-2.68 2.08-5.71 4.04-11.4 5.83-17.2 0.798-2.07 0.798-2.07 2.8-4.07 2.02-0.241 2.02-0.241 4.54-0.227 1.41 2.27e-4 1.41 2.27e-4 2.85 4.58e-4 1.02 0.0103 2.04 0.0206 3.08 0.0313 1.04 0.00283 2.08 0.00566 3.15 0.00858 3.33 0.0112 6.66 0.0363 10 0.0617 2.26 0.01 4.51 0.0192 6.77 0.0273 5.54 0.0221 11.1 0.0556 16.6 0.0977v2c-0.99 0.99-0.99 0.99-2 2-0.523 1.82-0.971 3.65-1.38 5.5-1.37 5.77-3.3 11.1-5.62 16.5-1.23 2.99-2.34 5.98-3.31 9.06-1.17 3.56-2.52 7-3.98 10.4-2.67 6.37-5.18 12.8-7.64 19.2-0.652 1.7-0.652 1.7-1.32 3.43-2.4 6.26-4.78 12.5-7.12 18.8-2.47 6.61-4.99 13.2-7.77 19.7-2.82 6.62-5.32 13.3-7.62 20.1-1.5 4.38-3.25 8.58-5.17 12.8-2.03 4.64-3.77 9.39-5.56 14.1-3.63 9.51-7.32 19-11.1 28.5-0.518 1.3-1.04 2.6-1.55 3.91-2.69 6.8-5.45 13.5-8.86 19.9-1.92-0.383-1.92-0.383-4-1-1.72-2.58-2-3.85-2-7-0.66-0.33-1.32-0.66-2-1-2.4-4.2-3.68-8.37-5-13-0.984-2.01-1.98-4.01-3-6-0.693-1.99-1.36-3.99-2-6-0.56-1.42-1.12-2.83-1.69-4.25-0.433-1.24-0.866-2.48-1.31-3.75 0.33-0.66 0.66-1.32 1-2-0.66-0.33-1.32-0.66-2-1-1.05-2.31-2.04-4.65-3-7-0.324-0.623-0.647-1.25-0.98-1.89-1.2-2.48-2-4.98-2.83-7.61-1.76-5.39-3.81-10.6-6.04-15.8-1.91-4.47-3.64-8.99-5.34-13.5-1.36-3.62-2.77-7.23-4.18-10.8-2.01-5.16-4.02-10.3-6-15.5-2.4-6.24-4.82-12.5-7.25-18.7-0.385-0.988-0.769-1.98-1.17-2.99-2.32-5.94-2.32-5.94-4.8-11.8-1.6-3.73-3.01-7.5-4.41-11.3-5.32-14.3-10.8-28.6-16.3-42.9-0.302-0.777-0.604-1.55-0.915-2.35-3.69-9.47-7.4-18.9-11.2-28.3-2.18-5.49-4.14-10.5-4.55-16.4 2.37-1.19 3.8-1.12 6.45-1.11zm67.6 193 1 2z" fill="#FAFBFD"/>
<path transform="translate(702,152)" d="m0 0c5.89-0.025 11.8-0.043 17.7-0.0549 2-0.00499 3.99-0.0118 5.99-0.0205 2.89-0.0123 5.78-0.0178 8.68-0.0222 0.873-0.00516 1.75-0.0103 2.65-0.0156 7.1-6.24e-4 13.9 0.564 21 1.11v179h-1v-177c-1.69 1.69-1.12 3.79-1.13 6.05 0.00291 0.729 0.00583 1.46 0.00883 2.21-0.00128 1.15-0.00128 1.15-0.00259 2.33-0.00166 2.59 0.00387 5.19 0.00932 7.78 2.82e-4 1.85 1.24e-4 3.7-4.43e-4 5.56-2.88e-4 5.05 0.00561 10.1 0.0126 15.1 0.00623 5.27 0.00684 10.5 0.00803 15.8 0.00311 9.98 0.0113 20 0.0213 29.9 0.0112 11.4 0.0167 22.7 0.0217 34.1 0.0105 23.4 0.0281 46.7 0.0503 70.1-6.71 0.169-13.4 0.329-20.1 0.482-2.28 0.0533-4.56 0.109-6.84 0.166-3.28 0.0824-6.57 0.157-9.85 0.231-1.52 0.0406-1.52 0.0406-3.07 0.0819-5.18 0.108-10-0.0373-15.1-0.961-1.17-3.51-1.14-6.66-1.13-10.3-0.00227-0.75-0.00453-1.5-0.00687-2.27-0.00634-2.52-0.00551-5.04-0.00469-7.57-0.00299-1.81-0.00639-3.61-0.0102-5.42-0.00885-4.91-0.0112-9.82-0.0118-14.7-9.49e-4 -4.1-0.00463-8.19-0.00817-12.3-0.00815-9.66-0.0106-19.3-0.00987-29 6.01e-4 -9.97-0.00995-19.9-0.0257-29.9-0.0131-8.56-0.0184-17.1-0.0178-25.7 2.55e-4 -5.11-0.00261-10.2-0.0132-15.3-0.00967-4.81-0.00977-9.62-0.00248-14.4 0.00105-1.77-0.00133-3.53-0.00736-5.3-0.0077-2.41-0.00309-4.82 0.00463-7.23-0.00514-0.699-0.0103-1.4-0.0156-2.12 0.0278-3.92 0.546-6.91 2.26-10.4z" fill="#FCFDFF"/>
<path transform="translate(670 42.9)" d="m0 0c1.48-0.00136 2.95-0.00314 4.43-0.00531 3.96-0.0045 7.92-0.00282 11.9 3.79e-4 4.17 0.00256 8.35 1.76e-4 12.5-0.00139 7-0.00181 14 5.56e-4 21 0.00534 8.06 0.00544 16.1 0.00367 24.2-0.00183 6.96-0.00456 13.9-0.00517 20.9-0.00256 4.14 0.00155 8.28 0.0018 12.4-0.00154 3.89-0.00292 7.78-8.32e-4 11.7 0.00489 1.42 0.00131 2.83 9.7e-4 4.25-0.00126 9.13-0.013 18.1 0.361 27.2 1.13-0.33 0.66-0.66 1.32-1 2-0.0846 1.47-0.107 2.94-0.0977 4.42 0.0033 0.914 0.00661 1.83 0.01 2.77 0.0124 1.48 0.0124 1.48 0.0251 3 0.00379 1.01 0.00757 2.03 0.0115 3.07 0.0122 3.25 0.0309 6.49 0.051 9.74 0.0265 4.27 0.0465 8.54 0.0625 12.8 0.0124 1.48 0.0124 1.48 0.0251 3 0.0033 0.914 0.00661 1.83 0.01 2.77 0.00524 0.807 0.0105 1.61 0.0159 2.44-0.114 1.97-0.114 1.97-1.11 3.97-19.3 0.992-38.6 1.16-57.9 1.17-2.47 7.2e-4 -4.93 0.00287-7.4 0.0055-8.63 0.00917-17.3 0.0133-25.9 0.0125-8.02-6.06e-4 -16 0.0101-24.1 0.0257-6.93 0.0131-13.9 0.0184-20.8 0.0178-4.12-2.55e-4 -8.24 0.00257-12.4 0.0132-3.85 0.00966-7.71 0.00978-11.6 0.00248-1.41-0.00105-2.83 0.00133-4.24 0.00736-1.93 0.0077-3.85 0.00189-5.78-0.00463-1.08 5.45e-4 -2.15 0.00109-3.26 0.00165-2.78-0.249-2.78-0.249-6.78-2.25v-49c10.6-0.661 21-1.15 31.5-1.13z" fill="#F7F8FA"/>
<path transform="translate(1281 42.9)" d="m0 0c3.33-0.0506 6.65-0.0555 9.97-0.042 1.75 0.0029 1.75 0.0029 3.54 0.00586 8.75 0.0436 17.4 0.372 26.1 1.12-0.33 0.66-0.66 1.32-1 2-0.0931 1.7-0.122 3.4-0.12 5.1-0.00137 1.08-0.00275 2.16-0.00417 3.27 0.0036 1.19 0.00719 2.38 0.0109 3.61-1.46e-4 1.25-2.92e-4 2.5-4.43e-4 3.78 5.78e-4 3.43 0.0056 6.86 0.0126 10.3 0.00624 3.58 0.00684 7.16 0.00803 10.7 0.00311 6.79 0.0113 13.6 0.0213 20.4 0.0133 9.17 0.0187 18.3 0.0245 27.5 0.00941 14.4 0.0293 28.9 0.0475 43.3h-56c-0.989-2.97-1.13-4.91-1.13-8-0.00426-1.03-0.00853-2.07-0.0129-3.13 4.53e-4 -1.13 9.06e-4 -2.27 0.00137-3.43-0.00336-1.19-0.00672-2.39-0.0102-3.62-0.00788-3.27-0.0112-6.55-0.0118-9.82-9.5e-4 -2.73-0.00463-5.47-0.00817-8.2-0.00814-6.45-0.0106-12.9-0.00987-19.3 6.01e-4 -6.65-0.00995-13.3-0.0257-20-0.0131-5.71-0.0184-11.4-0.0178-17.1 2.55e-4 -3.41-0.0026-6.82-0.0132-10.2-0.00976-3.8-0.00694-7.61-8.95e-4 -11.4-0.00562-1.13-0.0112-2.26-0.017-3.43 0.00419-1.04 0.00839-2.07 0.0127-3.14-5.45e-4 -0.899-0.00109-1.8-0.00165-2.73 0.27-2.61 0.796-4.23 2.25-6.4 2.57-0.605 2.57-0.605 5.79-0.742 1.17-0.0551 2.34-0.11 3.55-0.167 2.33-0.0579 4.66-0.116 6.99-0.174z" fill="#FAFBFD"/>
<path transform="translate(1090,247)" d="m0 0c2.46 2.25 4.35 4.79 6.31 7.48 13.4 18.3 33.2 27.4 55.1 31.8 0.813 0.163 1.63 0.327 2.46 0.495 14.2 2.6 28.6 2.37 43 2.27 18.4-0.116 36.8 0.193 55.2 0.982v50h-1v-47c-7.38 0.0348-7.38 0.0348-14.9 0.0703-3.17 0.0103-6.34 0.0199-9.52 0.0273-5 0.0118-10 0.0256-15 0.0532-18.9 0.102-37.7 0.0291-56.6-2.15-0.764-0.0878-1.53-0.176-2.31-0.266-3.54-0.424-6.82-0.906-10.2-2.11-0.67-0.235-1.34-0.469-2.03-0.711-0.815-0.302-1.63-0.603-2.47-0.914-0.889-0.322-0.889-0.322-1.8-0.65-11.2-4.08-21.3-9.2-30.6-16.6-0.645-0.507-1.29-1.01-1.95-1.54-3.2-2.64-4.68-4.24-5.61-8.21-0.936-0.46-0.936-0.46-1.89-0.93-2.92-1.48-3.51-3.27-4.86-6.2-0.428-0.91-0.856-1.82-1.3-2.76-0.315-0.699-0.629-1.4-0.953-2.12 0.33-0.33 0.66-0.66 1-1z"/>
<path transform="translate(1265,231)" d="m0 0c33.9-0.104 67.8 0.173 102 0.445 7.69 0.0617 15.4 0.122 23.1 0.181 15.8 0.122 31.5 0.247 47.3 0.373v3h-173c0.33-1.32 0.66-2.64 1-4z"/>
<path transform="translate(120,245)" d="m0 0c6.05-0.0247 12.1-0.0429 18.2-0.0549 2.06-0.00503 4.12-0.0119 6.17-0.0205 2.96-0.0121 5.92-0.0178 8.88-0.0222 0.92-0.00516 1.84-0.0103 2.79-0.0156 0.861-7.55e-5 1.72-1.51e-4 2.61-2.29e-4 0.755-0.00222 1.51-0.00444 2.29-0.00673 2.11 0.12 2.11 0.12 6.11 1.12v56c38.3-2.14 38.3-2.14 72-19 0.681-0.494 1.36-0.987 2.06-1.5 5.07-4 8.44-9.13 11.9-14.5 0.33 0.66 0.66 1.32 1 2-1.06 2.12-1.06 2.12-3 5-0.588 0.903-0.588 0.903-1.19 1.82-8.59 12.4-24.3 22.4-39.1 25.4-1.85 0.333-3.69 0.651-5.54 0.957-0.972 0.167-1.94 0.335-2.95 0.507-6.73 1.13-13.4 2.09-20.2 2.31-1.23 0.04-2.46 0.0799-3.72 0.121-9.84 0.17-9.84 0.17-13.3-2.12-0.323-2.29-0.323-2.29-0.249-5.18 0.0202-1.08 0.0405-2.16 0.0614-3.28 0.0374-1.17 0.0747-2.34 0.113-3.55 0.0397-1.79 0.0397-1.79 0.0801-3.62 0.088-3.83 0.197-7.66 0.307-11.5 0.0632-2.59 0.125-5.18 0.186-7.78 0.149-6.37 0.326-12.7 0.502-19.1h-47c0.33-1.32 0.66-2.64 1-4z"/>
<path transform="translate(887,224)" d="m0 0h1v65h86v55h-1v-52h-85c-2.08-4.17-2.22-5.8-2.14-10.3 0.0303-1.92 0.0303-1.92 0.0611-3.88 0.0323-1.39 0.0648-2.79 0.0976-4.18 0.0262-1.43 0.0514-2.86 0.0758-4.29 0.0665-3.76 0.145-7.51 0.227-11.3 0.081-3.83 0.15-7.67 0.221-11.5 0.14-7.52 0.292-15 0.453-22.6z"/>
<path transform="translate(510,276)" d="m0 0c4.98-0.455 8.64-0.128 12.6 3.13 2.6 2.87 5.03 5.83 7.43 8.87 0.786 0.944 1.57 1.89 2.38 2.86 2.24 2.69 4.43 5.41 6.62 8.14 0.699 0.865 1.4 1.73 2.12 2.62 0.642 0.806 1.28 1.61 1.95 2.44 0.568 0.713 1.14 1.43 1.72 2.16 1.21 1.78 1.21 1.78 1.21 3.78-7.94 0.778-7.94 0.778-11.6-1.88-0.804-1.03-1.61-2.06-2.44-3.12-0.639-0.786-1.28-1.57-1.94-2.38-2.05-2.52-4.06-5.06-6.06-7.62-1.93-2.45-3.79-4.79-6-7-3.46-3.74-6.49-7.02-8-12z" fill="#F6F8EF"/>
<path transform="translate(491,276)" d="m0 0c5.13-0.302 7.83-9.21e-4 12 3 1.87 1.99 3.6 3.95 5.31 6.06 0.477 0.576 0.954 1.15 1.45 1.74 3.55 4.3 7.05 8.65 10.5 13 1.54 1.92 3.12 3.8 4.73 5.66 2 2.5 2 2.5 2 4.5-0.701-0.165-1.4-0.33-2.12-0.5-2.87-0.624-2.87-0.624-5.81-0.258-3.06-0.242-3.06-0.242-5.12-2.08-0.601-0.838-1.2-1.68-1.82-2.54-0.67-0.908-1.34-1.81-2.03-2.75-0.691-0.949-1.38-1.9-2.09-2.88-1.45-1.8-2.91-3.59-4.38-5.38-2.27-2.78-4.14-5.35-5.62-8.62h-2c-5-5.36-5-5.36-5-9z" fill="#F6F8EF"/>
<path transform="translate(541 312)" d="m0 0c1.28 0.227 2.56 0.454 3.88 0.688-0.33 0.99-0.66 1.98-1 3h-2c-0.226 0.699-0.451 1.4-0.684 2.12-1.6 3.51-3.85 6.15-6.38 9.01-4.35 4.98-4.35 4.98-8.45 10.2-0.758 0.996-1.52 1.99-2.3 3.02-1 1.36-1 1.36-2.02 2.74-2.17 1.95-2.17 1.95-5.28 2.27-2.4-0.269-4.58-0.616-6.89-1.32 1.37-3.02 2.97-5.29 5.19-7.75 0.626-0.7 1.25-1.4 1.9-2.12 0.632-0.703 1.26-1.41 1.91-2.13 1.11-1.27 2.21-2.54 3.31-3.81 0.576-0.646 1.15-1.29 1.75-1.96 1.47-1.69 2.89-3.43 4.29-5.18 7.26-8.76 7.26-8.76 12.8-8.74z" fill="#F6F8EF"/>
<path transform="translate(482,277)" d="m0 0c2.12 1.95 3.67 3.62 5.38 5.88 0.699 0.874 0.699 0.874 1.41 1.77 0.956 1.2 1.9 2.4 2.85 3.61 2.01 2.58 4.1 5.1 6.18 7.62 0.717 0.88 1.43 1.76 2.17 2.67 2.62 3.2 5.31 6.33 8.02 9.46l-1 2c-0.99-0.33-1.98-0.66-3-1v-3c-0.33 0.99-0.66 1.98-1 3-2.6 0.469-2.6 0.469-6 0-2.55-2.18-4.45-4.81-6.44-7.5-1.14-1.48-2.29-2.95-3.43-4.43-0.541-0.709-1.08-1.42-1.64-2.15-1.77-2.28-3.63-4.46-5.56-6.61-0.518-0.585-1.04-1.17-1.57-1.77-0.451-0.508-0.902-1.02-1.37-1.54-4-4.62-4-4.62-4-8 3.26-1.63 5.53-0.869 9 0z" fill="#F6F8EF"/>
<path transform="translate(516,313)" d="m0 0c2.38-0.293 2.38-0.293 5.12-0.188 0.91 0.0271 1.82 0.0541 2.76 0.082 0.699 0.0348 1.4 0.0696 2.12 0.105-1.14 3.41-2.45 4.53-5 7-1.21 1.44-2.4 2.9-3.56 4.38-1.03 1.29-1.03 1.29-2.09 2.61-1.74 2.23-3.43 4.47-5.1 6.74-0.476 0.634-0.951 1.27-1.44 1.92-0.938 1.25-1.86 2.51-2.77 3.79-2.31 3.06-3.62 4.45-7.37 5.46-1.32 0.0483-1.32 0.0483-2.66 0.0977-0.66-0.99-1.32-1.98-2-3v2h-3c1.71-4.15 4.64-7.29 7.56-10.6 0.533-0.616 1.07-1.23 1.61-1.87 3.96-4.57 7.99-9.07 12.1-13.5 1.89-2.07 1.89-2.07 3.74-4.99z" fill="#F6F8EF"/>
<path transform="translate(506,313)" d="m0 0c0 3 0 3-1.74 4.88-0.745 0.7-1.49 1.4-2.26 2.12-1.4 1.63-2.77 3.28-4.12 4.94-0.785 0.955-1.57 1.91-2.38 2.89-1.76 2.19-3.41 4.44-5.02 6.74-0.423 0.591-0.847 1.18-1.28 1.79-0.816 1.15-1.61 2.31-2.39 3.48-1.68 2.33-3.08 3.95-5.89 4.74-2.22 0.282-2.22 0.282-5.91 0.415v-2c-0.66 0.33-1.32 0.66-2 1 0.592-3.36 1.68-5.08 4-7.56 2.94-3.23 5.71-6.53 8.44-9.94 1.51-1.84 3.03-3.67 4.56-5.5 0.683-0.819 1.37-1.64 2.07-2.48 4.58-5.07 7.08-6.5 13.9-5.52z" fill="#F6F8EF"/>
<path transform="translate(702,152)" d="m0 0c5.89-0.025 11.8-0.043 17.7-0.0549 2-0.00499 3.99-0.0118 5.99-0.0205 2.89-0.0123 5.78-0.0178 8.68-0.0222 0.873-0.00516 1.75-0.0103 2.65-0.0156 7.1-6.24e-4 13.9 0.564 21 1.11v179h-1v-177h-56c0.33-0.99 0.66-1.98 1-3z"/>
<path transform="translate(1495,46)" d="m0 0h1v281h-1v-281z"/>
<path transform="translate(371,249)" d="m0 0h1v52h72v3h-72c-1.94-3.88-2.24-5.04-2.14-9.14 0.0202-1.02 0.0403-2.04 0.0611-3.09 0.0322-1.09 0.0644-2.19 0.0976-3.32 0.025-1.13 0.0501-2.25 0.0758-3.41 0.0822-3.6 0.179-7.19 0.276-10.8 0.0582-2.44 0.116-4.88 0.172-7.32 0.14-5.98 0.292-12 0.453-17.9z"/>
<path transform="translate(120,95)" d="m0 0c9.02-0.0914 18-0.153 27.1-0.188 0.994-0.00385 0.994-0.00385 2.01-0.00778 20.2-0.0691 40 0.338 59.9 3.2v1c-4.46 0.0289-8.92 0.0468-13.4 0.0625-1.27 0.00838-2.54 0.0168-3.85 0.0254-1.82 0.00483-1.82 0.00483-3.67 0.00977-1.68 0.00786-1.68 0.00786-3.4 0.0159-2.71-0.114-2.71-0.114-4.71-1.11-2.88-0.0719-5.74-0.0929-8.62-0.0625-1.2 0.00677-1.2 0.00677-2.43 0.0137-1.98 0.0118-3.96 0.0297-5.95 0.0488v-1c-14.2-0.33-28.4-0.66-43-1v-1z" fill="#7B7C77"/>
<path transform="translate(1321,45)" d="m0 0h1v129h-1v-129z"/>
<path transform="translate(491,276)" d="m0 0c5.13-0.302 7.83-9.21e-4 12 3 1.87 1.99 3.6 3.95 5.31 6.06 0.477 0.576 0.954 1.15 1.45 1.74 3.55 4.3 7.05 8.65 10.5 13 1.54 1.92 3.12 3.8 4.73 5.66 2 2.5 2 2.5 2 4.5-1.32-0.33-2.64-0.66-4-1v-2h-2c-0.955-1.4-1.9-2.8-2.81-4.23-1.66-2.46-3.6-4.62-5.56-6.84-1.78-2.1-3.42-4.28-5.07-6.48-3.06-3.94-6.19-7.9-10.6-10.4-2.86-0.0505-2.86-0.0505-5 1-0.33-1.32-0.66-2.64-1-4z"/>
<path transform="translate(482,277)" d="m0 0c2.12 1.95 3.67 3.62 5.38 5.88 0.699 0.874 0.699 0.874 1.41 1.77 0.956 1.2 1.9 2.4 2.85 3.61 2.01 2.58 4.1 5.1 6.18 7.62 0.717 0.88 1.43 1.76 2.17 2.67 2.62 3.2 5.31 6.33 8.02 9.46l-1 2c-0.99-0.33-1.98-0.66-3-1v-3c-0.99-0.33-1.98-0.66-3-1-5.13-4.85-9.15-10.8-13.2-16.6-1.68-2.39-1.68-2.39-3.53-4.12-1.27-1.3-1.27-1.3-1.27-3.3-3.3-0.33-6.6-0.66-10-1v-3c3.26-1.63 5.53-0.869 9 0z"/>
<path transform="translate(1251,46)" d="m0 0h1v119h-1v-119z"/>
<path transform="translate(510,276)" d="m0 0c4.98-0.455 8.64-0.128 12.6 3.13 2.6 2.87 5.03 5.83 7.43 8.87 0.786 0.944 1.57 1.89 2.38 2.86 2.24 2.69 4.43 5.41 6.62 8.14 0.699 0.865 1.4 1.73 2.12 2.62 0.642 0.806 1.28 1.61 1.95 2.44 0.568 0.713 1.14 1.43 1.72 2.16 1.21 1.78 1.21 1.78 1.21 3.78h-3v-3h-2c-1.64-1.97-3.17-3.94-4.69-6-5.34-7.11-10.9-13.8-17.3-20-0.33-0.33-0.66-0.66-1-1-2.33-0.368-4.66-0.702-7-1-0.33-0.99-0.66-1.98-1-3z"/>
<path transform="translate(516,313)" d="m0 0c2.38-0.293 2.38-0.293 5.12-0.188 0.91 0.0271 1.82 0.0541 2.76 0.082 0.699 0.0348 1.4 0.0696 2.12 0.105-0.33 0.99-0.66 1.98-1 3-0.664 0.0632-1.33 0.126-2.01 0.191-5.34 0.634-5.34 0.634-9.7 3.5-1.16 1.73-2.23 3.52-3.29 5.31h-2c-0.262 0.57-0.523 1.14-0.793 1.73-2.19 4.13-5.29 7.63-8.21 11.3-0.483 0.633-0.967 1.27-1.46 1.92-1.11 1.42-2.31 2.76-3.54 4.08h-3c1.71-4.15 4.64-7.29 7.56-10.6 0.533-0.616 1.07-1.23 1.61-1.87 3.96-4.57 7.99-9.07 12.1-13.5 1.89-2.07 1.89-2.07 3.74-4.99z"/>
<path transform="translate(541 312)" d="m0 0c1.28 0.227 2.56 0.454 3.88 0.688-0.33 0.99-0.66 1.98-1 3h-9c-0.66 1.32-1.32 2.64-2 4-1.68 2.08-3.37 4.11-5.12 6.12-4.22 4.89-8.25 9.87-12.1 15-1.92 2-3.04 2.47-5.75 2.83 1.37-3.02 2.97-5.29 5.19-7.75 0.626-0.7 1.25-1.4 1.9-2.12 0.632-0.703 1.26-1.41 1.91-2.13 1.11-1.27 2.21-2.54 3.31-3.81 0.576-0.646 1.15-1.29 1.75-1.96 1.47-1.69 2.89-3.43 4.29-5.18 7.26-8.76 7.26-8.76 12.8-8.74z"/>
<path transform="translate(506,313)" d="m0 0v3c-0.699 0.0258-1.4 0.0516-2.12 0.0781-0.91 0.0567-1.82 0.113-2.76 0.172-0.905 0.0464-1.81 0.0928-2.74 0.141-2.52 0.356-2.52 0.356-3.58 2.48-0.266 0.701-0.531 1.4-0.805 2.12-2 2.75-2 2.75-4 5h-2c-0.268 0.763-0.536 1.53-0.812 2.31-1.15 2.6-2.13 3.81-4.19 5.69-0.33 0.66-0.66 1.32-1 2h-2c-0.227 0.763-0.454 1.53-0.688 2.31-1.58 3.23-3.15 4.1-6.31 5.69 0.592-3.36 1.68-5.08 4-7.56 2.94-3.23 5.71-6.53 8.44-9.94 1.51-1.84 3.03-3.67 4.56-5.5 0.683-0.819 1.37-1.64 2.07-2.48 4.58-5.07 7.08-6.5 13.9-5.52z"/>
<path transform="translate(618,142)" d="m0 0h47v2c-2.79 0.793-5.25 1.12-8.15 1.1-1.21-0.00495-1.21-0.00495-2.45-0.01-1.3-0.0124-1.3-0.0124-2.62-0.0251-1.34-0.00568-1.34-0.00568-2.71-0.0115-3.82-0.0163-7.65-0.0445-11.5-0.0715-2.79-0.0181-5.59-0.0302-8.38-0.042-0.864-0.0083-1.73-0.0166-2.62-0.0251-1.21-0.00495-1.21-0.00495-2.45-0.01-0.707-0.00524-1.41-0.0105-2.14-0.0159-2.11 0.119-3.98 0.537-6.01 1.11 0.66-1.32 1.32-2.64 2-4z"/>
<path transform="translate(1264,49)" d="m0 0h1c0.797 3.5 1.12 6.71 1.1 10.3-0.00483 1.46-0.00483 1.46-0.00977 2.96-0.00838 1.01-0.0168 2.01-0.0254 3.05-0.00451 1.03-0.00902 2.05-0.0137 3.11-0.0117 2.53-0.0282 5.05-0.0488 7.58-0.99-0.33-1.98-0.66-3-1-0.0272-2.83-0.047-5.67-0.0625-8.5-0.00838-0.791-0.0168-1.58-0.0254-2.4-0.021-5.13 0.349-10 1.09-15.1z" fill="#F6F8EF"/>
<path transform="translate(166,144)" d="m0 0h1v52h-1v-52z"/>
<path transform="translate(183,96)" d="m0 0c3.02 0.142 6.04 0.288 9.06 0.438 0.848 0.0393 1.7 0.0786 2.57 0.119 4.85 0.243 9.58 0.669 14.4 1.44v1h-27c0.33-0.99 0.66-1.98 1-3z" fill="#8E8F8A"/>
<path transform="translate(475,200)" d="m0 0h1v39h-1v-39z"/>
<path transform="translate(493,95)" d="m0 0c0.33 0.99 0.66 1.98 1 3h-10v-2c2.96-1.48 5.74-1.06 9-1z" fill="#E4E5DF"/>
<path transform="translate(1321,315)" d="m0 0h1v25h-1v-25z"/>
<path transform="translate(1078,203)" d="m0 0h1c0.33 3.96 0.66 7.92 1 12-2-2-2-2-2.2-4.38 0.0232-0.905 0.0464-1.81 0.0703-2.74 0.018-0.91 0.0361-1.82 0.0547-2.76 0.0232-0.699 0.0464-1.4 0.0703-2.12z"/>
<path transform="translate(1262,79)" d="m0 0h1v8h-1v-8z" fill="#F7F9F3"/>
<path transform="translate(536,311)" d="m0 0h6v1h-6v-1z"/>
<path transform="translate(516,311)" d="m0 0h5v1h-5v-1z"/>
<path transform="translate(497,311)" d="m0 0h5v1h-5v-1z"/>
<path transform="translate(310,191)" d="m0 0h1v5h-1v-5z"/>
<path transform="translate(1078,182)" d="m0 0h1v5h-1v-5z"/>
<path transform="translate(1494,340)" d="m0 0 1 4z"/>
<path transform="translate(757,335)" d="m0 0 1 4z"/>
<path transform="translate(1262,322)" d="m0 0 1 4z" fill="#FAFBFB"/>
<path transform="translate(1080,219)" d="m0 0 1 4z"/>
<path transform="translate(309,186)" d="m0 0 1 4z"/>
<path transform="translate(663,145)" d="m0 0 2 1z" fill="#F6F8EF"/>
</svg>
